<?xml version="1.0" encoding="UTF-8"?>
<svg version="1.1" xmlns="http://www.w3.org/2000/svg" width="256" height="256">
<path d="M0 0 C84.48 0 168.96 0 256 0 C256 84.48 256 168.96 256 256 C171.52 256 87.04 256 0 256 C0 171.52 0 87.04 0 0 Z " fill="#262C36" transform="translate(0,0)"/>
<path d="M0 0 C10.56 0 21.12 0 32 0 C32 1.32 32 2.64 32 4 C33.32 4 34.64 4 36 4 C36 5.32 36 6.64 36 8 C37.32 8 38.64 8 40 8 C40 9.32 40 10.64 40 12 C41.32 12 42.64 12 44 12 C44 13.32 44 14.64 44 16 C45.32 16 46.64 16 48 16 C48 17.32 48 18.64 48 20 C49.32 20 50.64 20 52 20 C52 21.32 52 22.64 52 24 C53.32 24 54.64 24 56 24 C56 25.32 56 26.64 56 28 C57.32 28 58.64 28 60 28 C60 29.32 60 30.64 60 32 C61.32 32 62.64 32 64 32 C64 33.32 64 34.64 64 36 C65.32 36 66.64 36 68 36 C68 37.32 68 38.64 68 40 C69.32 40 70.64 40 72 40 C72 41.32 72 42.64 72 44 C73.32 44 74.64 44 76 44 C76 45.32 76 46.64 76 48 C77.32 48 78.64 48 80 48 C80 67.8 80 87.6 80 108 C78.68 108 77.36 108 76 108 C76 109.32 76 110.64 76 112 C74.68 112 73.36 112 72 112 C72 113.32 72 114.64 72 116 C70.68 116 69.36 116 68 116 C68 117.32 68 118.64 68 120 C66.68 120 65.36 120 64 120 C64 121.32 64 122.64 64 124 C62.68 124 61.36 124 60 124 C60 125.32 60 126.64 60 128 C58.68 128 57.36 128 56 128 C56 129.32 56 130.64 56 132 C54.68 132 53.36 132 52 132 C52 133.32 52 134.64 52 136 C50.68 136 49.36 136 48 136 C48 137.32 48 138.64 48 140 C46.68 140 45.36 140 44 140 C44 141.32 44 142.64 44 144 C42.68 144 41.36 144 40 144 C40 145.32 40 146.64 40 148 C38.68 148 37.36 148 36 148 C36 149.32 36 150.64 36 152 C34.68 152 33.36 152 32 152 C32 153.32 32 154.64 32 156 C30.68 156 29.36 156 28 156 C28 157.32 28 158.64 28 160 C26.68 160 25.36 160 24 160 C24 161.32 24 162.64 24 164 C22.68 164 21.36 164 20 164 C20 165.32 20 166.64 20 168 C18.68 168 17.36 168 16 168 C16 169.32 16 170.64 16 172 C14.68 172 13.36 172 12 172 C12 173.32 12 174.64 12 176 C10.68 176 9.36 176 8 176 C8 177.32 8 178.64 8 180 C6.68 180 5.36 180 4 180 C4 181.32 4 182.64 4 184 C2.68 184 1.36 184 0 184 C0 185.32 0 186.64 0 188 C-1.32 188 -2.64 188 -4 188 C-4 189.32 -4 190.64 -4 192 C-5.32 192 -6.64 192 -8 192 C-8 193.32 -8 194.64 -8 196 C-9.32 196 -10.64 196 -12 196 C-12 197.32 -12 198.64 -12 200 C-13.32 200 -14.64 200 -16 200 C-16 201.32 -16 202.64 -16 204 C-17.32 204 -18.64 204 -20 204 C-20 205.32 -20 206.64 -20 208 C-21.32 208 -22.64 208 -24 208 C-24 148.6 -24 89.2 -24 28 C-22.68 28 -21.36 28 -20 28 C-20 26.68 -20 25.36 -20 24 C-18.68 24 -17.36 24 -16 24 C-16 21.36 -16 18.72 -16 16 C-14.68 16 -13.36 16 -12 16 C-12 14.68 -12 13.36 -12 12 C-9.36 12 -6.72 12 -4 12 C-4 9.36 -4 6.72 -4 4 C-2.68 4 -1.36 4 0 4 C0 2.68 0 1.36 0 0 Z " fill="#FE0000" transform="translate(152,24)"/>
<path d="M0 0 C10.56 0 21.12 0 32 0 C32 1.32 32 2.64 32 4 C33.32 4 34.64 4 36 4 C36 6.64 36 9.28 36 12 C38.64 12 41.28 12 44 12 C44 13.32 44 14.64 44 16 C45.32 16 46.64 16 48 16 C48 18.64 48 21.28 48 24 C49.32 24 50.64 24 52 24 C52 25.32 52 26.64 52 28 C53.32 28 54.64 28 56 28 C56 87.4 56 146.8 56 208 C54.68 208 53.36 208 52 208 C52 206.68 52 205.36 52 204 C50.68 204 49.36 204 48 204 C48 202.68 48 201.36 48 200 C46.68 200 45.36 200 44 200 C44 198.68 44 197.36 44 196 C42.68 196 41.36 196 40 196 C40 194.68 40 193.36 40 192 C38.68 192 37.36 192 36 192 C36 190.68 36 189.36 36 188 C34.68 188 33.36 188 32 188 C32 186.68 32 185.36 32 184 C30.68 184 29.36 184 28 184 C28 182.68 28 181.36 28 180 C26.68 180 25.36 180 24 180 C24 178.68 24 177.36 24 176 C22.68 176 21.36 176 20 176 C20 174.68 20 173.36 20 172 C18.68 172 17.36 172 16 172 C16 170.68 16 169.36 16 168 C14.68 168 13.36 168 12 168 C12 166.68 12 165.36 12 164 C10.68 164 9.36 164 8 164 C8 162.68 8 161.36 8 160 C6.68 160 5.36 160 4 160 C4 158.68 4 157.36 4 156 C2.68 156 1.36 156 0 156 C0 154.68 0 153.36 0 152 C-1.32 152 -2.64 152 -4 152 C-4 150.68 -4 149.36 -4 148 C-5.32 148 -6.64 148 -8 148 C-8 146.68 -8 145.36 -8 144 C-9.32 144 -10.64 144 -12 144 C-12 142.68 -12 141.36 -12 140 C-13.32 140 -14.64 140 -16 140 C-16 138.68 -16 137.36 -16 136 C-17.32 136 -18.64 136 -20 136 C-20 134.68 -20 133.36 -20 132 C-21.32 132 -22.64 132 -24 132 C-24 130.68 -24 129.36 -24 128 C-25.32 128 -26.64 128 -28 128 C-28 126.68 -28 125.36 -28 124 C-29.32 124 -30.64 124 -32 124 C-32 122.68 -32 121.36 -32 120 C-33.32 120 -34.64 120 -36 120 C-36 118.68 -36 117.36 -36 116 C-37.32 116 -38.64 116 -40 116 C-40 114.68 -40 113.36 -40 112 C-41.32 112 -42.64 112 -44 112 C-44 110.68 -44 109.36 -44 108 C-45.32 108 -46.64 108 -48 108 C-48 88.2 -48 68.4 -48 48 C-46.68 48 -45.36 48 -44 48 C-44 46.68 -44 45.36 -44 44 C-42.68 44 -41.36 44 -40 44 C-40 42.68 -40 41.36 -40 40 C-38.68 40 -37.36 40 -36 40 C-36 38.68 -36 37.36 -36 36 C-34.68 36 -33.36 36 -32 36 C-32 34.68 -32 33.36 -32 32 C-30.68 32 -29.36 32 -28 32 C-28 30.68 -28 29.36 -28 28 C-26.68 28 -25.36 28 -24 28 C-24 26.68 -24 25.36 -24 24 C-22.68 24 -21.36 24 -20 24 C-20 22.68 -20 21.36 -20 20 C-18.68 20 -17.36 20 -16 20 C-16 18.68 -16 17.36 -16 16 C-14.68 16 -13.36 16 -12 16 C-12 14.68 -12 13.36 -12 12 C-10.68 12 -9.36 12 -8 12 C-8 10.68 -8 9.36 -8 8 C-6.68 8 -5.36 8 -4 8 C-4 6.68 -4 5.36 -4 4 C-2.68 4 -1.36 4 0 4 C0 2.68 0 1.36 0 0 Z " fill="#82FE46" transform="translate(72,24)"/>
<path d="M0 0 C84.48 0 168.96 0 256 0 C256 5.28 256 10.56 256 16 C250.72 16 245.44 16 240 16 C240 21.28 240 26.56 240 32 C234.72 32 229.44 32 224 32 C224 37.28 224 42.56 224 48 C217.4 48 210.8 48 204 48 C204 46.68 204 45.36 204 44 C202.68 44 201.36 44 200 44 C200 42.68 200 41.36 200 40 C198.68 40 197.36 40 196 40 C196 38.68 196 37.36 196 36 C194.68 36 193.36 36 192 36 C192 34.68 192 33.36 192 32 C190.68 32 189.36 32 188 32 C188 30.68 188 29.36 188 28 C186.68 28 185.36 28 184 28 C184 26.68 184 25.36 184 24 C173.44 24 162.88 24 152 24 C152 25.32 152 26.64 152 28 C150.68 28 149.36 28 148 28 C148 30.64 148 33.28 148 36 C145.36 36 142.72 36 140 36 C140 37.32 140 38.64 140 40 C138.68 40 137.36 40 136 40 C136 42.64 136 45.28 136 48 C134.68 48 133.36 48 132 48 C132 49.32 132 50.64 132 52 C129.36 52 126.72 52 124 52 C124 50.68 124 49.36 124 48 C122.68 48 121.36 48 120 48 C120 45.36 120 42.72 120 40 C118.68 40 117.36 40 116 40 C116 38.68 116 37.36 116 36 C113.36 36 110.72 36 108 36 C108 33.36 108 30.72 108 28 C106.68 28 105.36 28 104 28 C104 26.68 104 25.36 104 24 C93.44 24 82.88 24 72 24 C72 25.32 72 26.64 72 28 C70.68 28 69.36 28 68 28 C68 29.32 68 30.64 68 32 C66.68 32 65.36 32 64 32 C64 33.32 64 34.64 64 36 C62.68 36 61.36 36 60 36 C60 37.32 60 38.64 60 40 C58.68 40 57.36 40 56 40 C56 41.32 56 42.64 56 44 C54.68 44 53.36 44 52 44 C52 45.32 52 46.64 52 48 C45.4 48 38.8 48 32 48 C32 42.72 32 37.44 32 32 C26.72 32 21.44 32 16 32 C16 26.72 16 21.44 16 16 C10.72 16 5.44 16 0 16 C0 10.72 0 5.44 0 0 Z " fill="#6A7E96" transform="translate(0,0)"/>
<path d="M0 0 C5.28 0 10.56 0 16 0 C16 73.92 16 147.84 16 224 C10.72 224 5.44 224 0 224 C0 218.72 0 213.44 0 208 C-5.28 208 -10.56 208 -16 208 C-16 202.72 -16 197.44 -16 192 C-21.28 192 -26.56 192 -32 192 C-32 186.72 -32 181.44 -32 176 C-37.28 176 -42.56 176 -48 176 C-48 170.72 -48 165.44 -48 160 C-49.32 160 -50.64 160 -52 160 C-52 158.68 -52 157.36 -52 156 C-50.68 156 -49.36 156 -48 156 C-48 154.68 -48 153.36 -48 152 C-46.68 152 -45.36 152 -44 152 C-44 150.68 -44 149.36 -44 148 C-42.68 148 -41.36 148 -40 148 C-40 146.68 -40 145.36 -40 144 C-38.68 144 -37.36 144 -36 144 C-36 142.68 -36 141.36 -36 140 C-34.68 140 -33.36 140 -32 140 C-32 138.68 -32 137.36 -32 136 C-30.68 136 -29.36 136 -28 136 C-28 134.68 -28 133.36 -28 132 C-26.68 132 -25.36 132 -24 132 C-24 130.68 -24 129.36 -24 128 C-22.68 128 -21.36 128 -20 128 C-20 126.68 -20 125.36 -20 124 C-18.68 124 -17.36 124 -16 124 C-16 122.68 -16 121.36 -16 120 C-14.68 120 -13.36 120 -12 120 C-12 118.68 -12 117.36 -12 116 C-10.68 116 -9.36 116 -8 116 C-8 96.2 -8 76.4 -8 56 C-9.32 56 -10.64 56 -12 56 C-12 54.68 -12 53.36 -12 52 C-13.32 52 -14.64 52 -16 52 C-16 50.68 -16 49.36 -16 48 C-17.32 48 -18.64 48 -20 48 C-20 46.68 -20 45.36 -20 44 C-21.32 44 -22.64 44 -24 44 C-24 42.68 -24 41.36 -24 40 C-25.32 40 -26.64 40 -28 40 C-28 38.68 -28 37.36 -28 36 C-29.32 36 -30.64 36 -32 36 C-32 34.68 -32 33.36 -32 32 C-26.72 32 -21.44 32 -16 32 C-16 26.72 -16 21.44 -16 16 C-10.72 16 -5.44 16 0 16 C0 10.72 0 5.44 0 0 Z " fill="#404C5C" transform="translate(240,16)"/>
<path d="M0 0 C5.28 0 10.56 0 16 0 C16 5.28 16 10.56 16 16 C21.28 16 26.56 16 32 16 C32 21.28 32 26.56 32 32 C37.28 32 42.56 32 48 32 C48 33.32 48 34.64 48 36 C46.68 36 45.36 36 44 36 C44 37.32 44 38.64 44 40 C42.68 40 41.36 40 40 40 C40 41.32 40 42.64 40 44 C38.68 44 37.36 44 36 44 C36 45.32 36 46.64 36 48 C34.68 48 33.36 48 32 48 C32 49.32 32 50.64 32 52 C30.68 52 29.36 52 28 52 C28 53.32 28 54.64 28 56 C26.68 56 25.36 56 24 56 C24 75.8 24 95.6 24 116 C25.32 116 26.64 116 28 116 C28 117.32 28 118.64 28 120 C29.32 120 30.64 120 32 120 C32 121.32 32 122.64 32 124 C33.32 124 34.64 124 36 124 C36 125.32 36 126.64 36 128 C37.32 128 38.64 128 40 128 C40 129.32 40 130.64 40 132 C41.32 132 42.64 132 44 132 C44 133.32 44 134.64 44 136 C45.32 136 46.64 136 48 136 C48 137.32 48 138.64 48 140 C49.32 140 50.64 140 52 140 C52 141.32 52 142.64 52 144 C53.32 144 54.64 144 56 144 C56 145.32 56 146.64 56 148 C57.32 148 58.64 148 60 148 C60 149.32 60 150.64 60 152 C61.32 152 62.64 152 64 152 C64 153.32 64 154.64 64 156 C65.32 156 66.64 156 68 156 C68 157.32 68 158.64 68 160 C66.68 160 65.36 160 64 160 C64 165.28 64 170.56 64 176 C58.72 176 53.44 176 48 176 C48 181.28 48 186.56 48 192 C42.72 192 37.44 192 32 192 C32 197.28 32 202.56 32 208 C26.72 208 21.44 208 16 208 C16 213.28 16 218.56 16 224 C10.72 224 5.44 224 0 224 C0 150.08 0 76.16 0 0 Z " fill="#404C5C" transform="translate(0,16)"/>
</svg>
